<?xml version="1.0" encoding="UTF-8"?>
<svg width="700pt" height="700pt" version="1.1" viewBox="0 0 700 700" xmlns="http://www.w3.org/2000/svg">
 <g>
  <path d="m595 560h-490c-6.4414 0-11.668-5.2266-11.668-11.668v-536.67c0-6.4375 5.2266-11.664 11.668-11.664h490c6.4414 0 11.668 5.2266 11.668 11.668v536.67c0 6.4375-5.2266 11.664-11.668 11.664zm-478.33-23.332h466.67l-0.003907-513.34h-466.66z"/>
  <path d="m548.33 420h-396.67c-6.4375 0-11.664-5.2266-11.664-11.668v-350c0-6.4375 5.2266-11.664 11.668-11.664h396.67c6.4375 0 11.664 5.2266 11.664 11.664v350c0 6.4414-5.2266 11.668-11.668 11.668zm-385-23.332h373.33l0.003907-326.67h-373.34z"/>
  <path d="m245 350c-3.0586 0-6.043-1.2148-8.2617-3.4062-2.9883-2.9648-4.1289-7.3047-2.9883-11.363l58.332-210c0.83984-3.0586 2.8945-5.625 5.6719-7.1406 2.8008-1.4922 6.0664-1.8203 9.1016-0.86328 75.691 24.012 135.24 83.559 159.25 159.25 0.95703 3.0352 0.62891 6.3242-0.86328 9.1016-1.4922 2.7773-4.082 4.8281-7.1406 5.6719l-210 58.332c-1 0.27734-2.0508 0.41797-3.1016 0.41797zm66.242-206.57-49.465 178.12 178.12-49.465c-22.445-59.242-69.414-106.21-128.66-128.66z"/>
  <path d="m350 268.33c-19.297 0-35-15.703-35-35s15.703-35 35-35 35 15.703 35 35-15.703 35-35 35zm0-46.664c-6.418 0-11.668 5.25-11.668 11.668 0 6.418 5.25 11.668 11.668 11.668s11.668-5.25 11.668-11.668c0-6.418-5.25-11.668-11.668-11.668z"/>
  <path d="m291.67 280h-23.332c-6.4414 0-11.668-5.2266-11.668-11.668 0-6.4375 5.2266-11.664 11.664-11.664h23.332c6.4414 0 11.668 5.2266 11.668 11.668 0 6.4375-5.2266 11.664-11.664 11.664z"/>
 </g>
</svg>
